<svg width="23" height="25" viewBox="0 0 23 25" fill="none" xmlns="http://www.w3.org/2000/svg">
<path d="M16.4887 0C20.35 0 22.5 2.225 22.5 6.0375V18.95C22.5 22.825 20.35 25 16.4887 25H6.0125C2.2125 25 0 22.825 0 18.95V6.0375C0 2.225 2.2125 0 6.0125 0H16.4887ZM6.35 17.175C5.975 17.1375 5.6125 17.3125 5.4125 17.6375C5.2125 17.95 5.2125 18.3625 5.4125 18.6875C5.6125 19 5.975 19.1875 6.35 19.1375H16.15C16.6488 19.0875 17.025 18.6612 17.025 18.1625C17.025 17.65 16.6488 17.225 16.15 17.175H6.35ZM16.15 11.4737H6.35C5.81125 11.4737 5.375 11.9125 5.375 12.45C5.375 12.9875 5.81125 13.425 6.35 13.425H16.15C16.6875 13.425 17.125 12.9875 17.125 12.45C17.125 11.9125 16.6875 11.4737 16.15 11.4737ZM10.0863 5.8125H6.35V5.825C5.81125 5.825 5.375 6.2625 5.375 6.8C5.375 7.3375 5.81125 7.775 6.35 7.775H10.0863C10.625 7.775 11.0625 7.3375 11.0625 6.78625C11.0625 6.25 10.625 5.8125 10.0863 5.8125Z" fill="#FCECDD"/>
</svg>
