<svg width="21" height="21" viewBox="0 0 21 21" fill="none" xmlns="http://www.w3.org/2000/svg">
<g style="mix-blend-mode:difference">
<circle cx="10.5" cy="10.5" r="10.5" fill="#031322"/>
</g>
<mask id="path-2-outside-1" maskUnits="userSpaceOnUse" x="4.34546" y="4.34546" width="13" height="13" fill="black">
<rect fill="white" x="4.34546" y="4.34546" width="13" height="13"/>
<path fill-rule="evenodd" clip-rule="evenodd" d="M10.5 5.34546C10.1837 5.34546 9.92728 5.60188 9.92728 5.91819V9.92728H5.91819C5.60188 9.92728 5.34546 10.1837 5.34546 10.5C5.34546 10.8163 5.60188 11.0727 5.91819 11.0727H9.92728V15.0818C9.92728 15.3981 10.1837 15.6545 10.5 15.6545C10.8163 15.6545 11.0727 15.3981 11.0727 15.0818V11.0727H15.0818C15.3981 11.0727 15.6545 10.8163 15.6545 10.5C15.6545 10.1837 15.3981 9.92728 15.0818 9.92728H11.0727V5.91819C11.0727 5.60188 10.8163 5.34546 10.5 5.34546Z"/>
</mask>
<path fill-rule="evenodd" clip-rule="evenodd" d="M10.5 5.34546C10.1837 5.34546 9.92728 5.60188 9.92728 5.91819V9.92728H5.91819C5.60188 9.92728 5.34546 10.1837 5.34546 10.5C5.34546 10.8163 5.60188 11.0727 5.91819 11.0727H9.92728V15.0818C9.92728 15.3981 10.1837 15.6545 10.5 15.6545C10.8163 15.6545 11.0727 15.3981 11.0727 15.0818V11.0727H15.0818C15.3981 11.0727 15.6545 10.8163 15.6545 10.5C15.6545 10.1837 15.3981 9.92728 15.0818 9.92728H11.0727V5.91819C11.0727 5.60188 10.8163 5.34546 10.5 5.34546Z" fill="white"/>
<path d="M9.92728 9.92728V10.9273H10.9273V9.92728H9.92728ZM5.34546 10.5H6.34546H5.34546ZM9.92728 11.0727H10.9273V10.0727H9.92728V11.0727ZM11.0727 11.0727V10.0727H10.0727V11.0727H11.0727ZM11.0727 9.92728H10.0727V10.9273H11.0727V9.92728ZM10.9273 5.91819C10.9273 6.15416 10.736 6.34546 10.5 6.34546V4.34546C9.63141 4.34546 8.92728 5.04959 8.92728 5.91819H10.9273ZM10.9273 9.92728V5.91819H8.92728V9.92728H10.9273ZM5.91819 10.9273H9.92728V8.92728H5.91819V10.9273ZM6.34546 10.5C6.34546 10.736 6.15416 10.9273 5.91819 10.9273V8.92728C5.04959 8.92728 4.34546 9.63141 4.34546 10.5H6.34546ZM5.91819 10.0727C6.15416 10.0727 6.34546 10.264 6.34546 10.5H4.34546C4.34546 11.3686 5.04959 12.0727 5.91819 12.0727V10.0727ZM9.92728 10.0727H5.91819V12.0727H9.92728V10.0727ZM10.9273 15.0818V11.0727H8.92728V15.0818H10.9273ZM10.5 14.6545C10.736 14.6545 10.9273 14.8458 10.9273 15.0818H8.92728C8.92728 15.9504 9.63141 16.6545 10.5 16.6545V14.6545ZM10.0727 15.0818C10.0727 14.8458 10.264 14.6545 10.5 14.6545V16.6545C11.3686 16.6545 12.0727 15.9504 12.0727 15.0818H10.0727ZM10.0727 11.0727V15.0818H12.0727V11.0727H10.0727ZM15.0818 10.0727H11.0727V12.0727H15.0818V10.0727ZM14.6545 10.5C14.6545 10.264 14.8458 10.0727 15.0818 10.0727V12.0727C15.9504 12.0727 16.6545 11.3686 16.6545 10.5H14.6545ZM15.0818 10.9273C14.8458 10.9273 14.6545 10.736 14.6545 10.5H16.6545C16.6545 9.63141 15.9504 8.92728 15.0818 8.92728V10.9273ZM11.0727 10.9273H15.0818V8.92728H11.0727V10.9273ZM10.0727 5.91819V9.92728H12.0727V5.91819H10.0727ZM10.5 6.34546C10.264 6.34546 10.0727 6.15416 10.0727 5.91819H12.0727C12.0727 5.04959 11.3686 4.34546 10.5 4.34546V6.34546Z" fill="white" mask="url(#path-2-outside-1)"/>
</svg>
