<svg width="29" height="30" viewBox="0 0 29 30" fill="none" xmlns="http://www.w3.org/2000/svg">
<path d="M6.4127 26.6825V8.49204H4.88889C3.61905 8.49204 2.57143 9.53966 2.57143 10.8095V24.3651C2.57143 25.6349 3.5873 26.6825 4.88889 26.6825H6.4127ZM16.6984 5.92061V5.76188C16.6984 4.42855 15.619 3.34918 14.2857 3.34918C12.9206 3.34918 11.8413 4.42855 11.8413 5.76188V5.92061H16.6984ZM19.5238 26.6825V8.49204H18H10.5397H9.01587V26.6825H19.5238ZM25.9683 24.3651V10.8412C25.9365 9.57141 24.9206 8.52379 23.6508 8.52379H22.127V26.7143H23.6508C24.9206 26.6825 25.9683 25.6349 25.9683 24.3651ZM28.5714 10.8412V24.3968C28.5397 27.0952 26.3492 29.2857 23.6508 29.2857H20.8254H7.71428H4.88889C2.19048 29.2857 0 27.0952 0 24.3651V10.8412C0 8.11109 2.19048 5.92061 4.88889 5.92061H7.71428H9.23809V5.76188C9.23809 2.96823 11.4921 0.714264 14.2857 0.714264C17.0476 0.714264 19.3016 2.96823 19.3016 5.73014V5.88887H20.8254H23.6508C26.3492 5.92061 28.5714 8.11109 28.5714 10.8412Z" fill="#FCECDD"/>
</svg>
