<svg width="47" height="47" viewBox="0 0 47 47" fill="none" xmlns="http://www.w3.org/2000/svg">
<path fill-rule="evenodd" clip-rule="evenodd" d="M24.831 16.723C26.9356 18.8276 27.1651 22.0972 25.5194 24.4559L30.3659 29.3024C30.7828 29.7193 30.7828 30.3951 30.3659 30.812C29.9491 31.2288 29.2733 31.2288 28.8564 30.812L24.0098 25.9654C21.6512 27.6111 18.3816 27.3816 16.277 25.277C13.9149 22.9149 13.9149 19.0851 16.277 16.723C18.6391 14.3609 22.4689 14.3609 24.831 16.723ZM23.3218 23.7671C24.8501 22.2385 24.8497 19.7604 23.3211 18.2322C21.7925 16.7039 19.3144 16.7043 17.7862 18.2329C16.2579 19.7615 16.2582 22.2396 17.7869 23.7678C19.3155 25.2961 21.7936 25.2958 23.3218 23.7671Z" fill="white"/>
</svg>
