<svg width="22" height="21" viewBox="0 0 22 21" fill="none" xmlns="http://www.w3.org/2000/svg">
<path d="M10.373 1.92035L7.26642 6.48074C7.20012 6.57807 7.16696 6.62674 7.12498 6.66548C7.08776 6.69983 7.04553 6.72833 6.99974 6.74999C6.9481 6.77442 6.89056 6.78696 6.77549 6.81202L2.20693 7.80693C1.80487 7.89449 1.60384 7.93827 1.49787 8.05004C1.40527 8.14772 1.35596 8.2786 1.36109 8.4131C1.36696 8.56701 1.48913 8.73256 1.73347 9.06364L4.7393 13.1367L4.73931 13.1367C4.80364 13.2238 4.8358 13.2674 4.85758 13.3155C4.87691 13.3582 4.89015 13.4033 4.89691 13.4497C4.90453 13.5019 4.90098 13.556 4.89389 13.6641L4.55658 18.806C4.53039 19.2054 4.51729 19.4051 4.59307 19.5364C4.65933 19.6512 4.76848 19.735 4.89651 19.7694C5.04296 19.8087 5.23249 19.7445 5.61155 19.6161L10.7433 17.8777C10.8385 17.8454 10.8861 17.8293 10.9349 17.8229C10.9781 17.8172 11.0219 17.8172 11.0651 17.8229C11.1139 17.8293 11.1615 17.8454 11.2567 17.8777L16.3885 19.6161C16.7675 19.7445 16.957 19.8087 17.1035 19.7694C17.2315 19.735 17.3407 19.6512 17.4069 19.5364C17.4827 19.4051 17.4696 19.2054 17.4434 18.806V18.806L17.1061 13.6641C17.099 13.556 17.0955 13.5019 17.1031 13.4497C17.1099 13.4033 17.1231 13.3582 17.1424 13.3155C17.1642 13.2674 17.1964 13.2238 17.2607 13.1367L17.2607 13.1367L20.2792 9.0465C20.5198 8.7204 20.6402 8.55735 20.6467 8.40477C20.6524 8.27141 20.6046 8.14129 20.5139 8.0434C20.41 7.9314 20.2127 7.88513 19.8182 7.7926L15.6288 6.81009C15.5248 6.78568 15.4727 6.77347 15.4255 6.75136C15.3836 6.73174 15.3447 6.70641 15.3098 6.67609C15.2704 6.64191 15.2382 6.59929 15.1736 6.51406L15.1736 6.51404L11.6721 1.88793C11.4453 1.58827 11.3319 1.43844 11.1948 1.38775C11.0748 1.34339 10.9424 1.34669 10.8248 1.39699C10.6904 1.45444 10.5846 1.60975 10.373 1.92035Z" fill="white" stroke="#031322"/>
</svg>
