<svg width="25" height="24" viewBox="0 0 25 24" fill="none" xmlns="http://www.w3.org/2000/svg">
<path d="M19.896 14.775C19.5723 15.0887 19.4236 15.5425 19.4973 15.9875L20.6084 22.1375C20.7021 22.6587 20.4822 23.1863 20.046 23.4875C19.6185 23.8 19.0499 23.8375 18.5837 23.5875L13.0481 20.7C12.8557 20.5975 12.6419 20.5425 12.4232 20.5363H12.0845C11.967 20.5538 11.852 20.5912 11.7471 20.6487L6.21028 23.55C5.93657 23.6875 5.62661 23.7363 5.3229 23.6875C4.583 23.5475 4.08931 22.8425 4.21054 22.0988L5.3229 15.9487C5.39664 15.5 5.24791 15.0437 4.9242 14.725L0.411041 10.35C0.0335904 9.98375 -0.0976425 9.43375 0.074835 8.9375C0.242313 8.4425 0.669757 8.08125 1.18594 8L7.39763 7.09875C7.87007 7.05 8.28501 6.7625 8.49748 6.3375L11.2346 0.725C11.2996 0.6 11.3834 0.485 11.4846 0.3875L11.5971 0.3C11.6558 0.235 11.7233 0.18125 11.7983 0.1375L11.9345 0.0875L12.147 0H12.6732C13.1431 0.04875 13.5568 0.33 13.773 0.75L16.5464 6.3375C16.7464 6.74625 17.1351 7.03 17.5838 7.09875L23.7955 8C24.3204 8.075 24.7591 8.4375 24.9328 8.9375C25.0966 9.43875 24.9553 9.98875 24.5704 10.35L19.896 14.775Z" fill="#FCECDD"/>
</svg>
