<svg width="25" height="24" viewBox="0 0 25 24" fill="none" xmlns="http://www.w3.org/2000/svg">
<path fill-rule="evenodd" clip-rule="evenodd" d="M12.5001 1.92563C12.3835 1.92563 12.0963 1.95772 11.9437 2.26326L9.60263 6.95024C9.23211 7.69096 8.518 8.20575 7.69234 8.32385L2.45122 9.07998C2.10506 9.13005 1.98711 9.3868 1.95121 9.49463C1.91916 9.59862 1.86788 9.86307 2.10634 10.0916L5.89615 13.7374C6.50001 14.319 6.77437 15.1573 6.63078 15.9776L5.73846 21.1254C5.68333 21.4477 5.88461 21.6351 5.97436 21.6993C6.06923 21.7712 6.32308 21.9137 6.63719 21.7493L11.3232 19.3166C12.0616 18.9353 12.9412 18.9353 13.6771 19.3166L18.3618 21.7481C18.6772 21.9111 18.931 21.7686 19.0272 21.6993C19.1169 21.6351 19.3182 21.4477 19.2631 21.1254L18.3682 15.9776C18.2246 15.1573 18.4989 14.319 19.1028 13.7374L22.8926 10.0916C23.1324 9.86307 23.0811 9.59733 23.0477 9.49463C23.0131 9.3868 22.8952 9.13005 22.549 9.07998L17.3079 8.32385C16.4835 8.20575 15.7694 7.69096 15.3989 6.94895L13.0553 2.26326C12.904 1.95772 12.6168 1.92563 12.5001 1.92563ZM6.34232 23.7494C5.81282 23.7494 5.28717 23.5825 4.83716 23.2539C4.06022 22.6839 3.67945 21.7429 3.84483 20.7955L4.73716 15.6477C4.77049 15.4564 4.70511 15.2625 4.56408 15.1265L0.774266 11.4806C0.076817 10.8118 -0.173188 9.82327 0.12169 8.90539C0.419131 7.97724 1.20632 7.31354 2.17685 7.17489L7.41798 6.41876C7.62054 6.39052 7.79491 6.266 7.88209 6.08884L10.2244 1.40057C10.6565 0.536609 11.5283 0 12.5001 0C13.4719 0 14.3437 0.536609 14.7758 1.40057L17.1194 6.08755C17.2079 6.266 17.381 6.39052 17.5823 6.41876L22.8234 7.17489C23.7939 7.31354 24.5811 7.97724 24.8786 8.90539C25.1734 9.82327 24.9221 10.8118 24.2247 11.4806L20.4349 15.1265C20.2938 15.2625 20.2297 15.4564 20.2631 15.6464L21.1567 20.7955C21.3208 21.7442 20.94 22.6852 20.1618 23.2539C19.3733 23.8329 18.3464 23.9112 17.4759 23.4567L12.7924 21.0266C12.6091 20.9316 12.3899 20.9316 12.2065 21.0266L7.52311 23.458C7.14874 23.6531 6.74489 23.7494 6.34232 23.7494Z" fill="#031322"/>
</svg>
