<svg width="19" height="32" viewBox="0 0 19 32" fill="none" xmlns="http://www.w3.org/2000/svg">
<path d="M18.4432 22.184C18.8811 22.641 18.8811 23.3721 18.4432 23.7833C17.1736 25.0627 15.6413 26.0222 13.9776 26.5705V29.8604C13.9776 30.5001 13.496 31.0027 12.8831 31.0027C12.2702 31.0027 11.7886 30.5001 11.7886 29.8604V26.9818C11.4821 27.0275 11.1319 27.0275 10.8254 27.0275C10.3876 27.0275 9.94978 26.9818 9.51197 26.9361V29.8147C9.51197 30.4544 9.03038 30.957 8.41745 30.957C7.80452 30.957 7.32293 30.4544 7.32293 29.8147V26.3878C3.03241 24.7885 0.142883 20.5848 0.142883 15.7871C0.142883 11.0351 3.03241 6.78564 7.36671 5.1864V1.75945C7.36671 1.11975 7.8483 0.617134 8.46123 0.617134C9.07416 0.617134 9.55575 1.11975 9.55575 1.75945V4.63808C10.3 4.5467 11.0881 4.5467 11.8323 4.59239V1.71376C11.8323 1.07406 12.3139 0.571442 12.9269 0.571442C13.5398 0.571442 14.0214 1.07406 14.0214 1.71376V5.00362C15.7288 5.50624 17.2612 6.46579 18.487 7.79087C18.9248 8.2478 18.8811 8.97888 18.4432 9.39012C18.0054 9.80135 17.3487 9.80135 16.9109 9.39012C15.7288 8.15642 14.2841 7.33395 12.6642 7.0141C11.3508 6.69425 9.99356 6.73994 8.68013 7.05979C7.23537 7.47103 5.87816 8.2478 4.78364 9.39012C1.45631 13.0455 1.45631 18.7114 4.78364 22.184C5.83438 23.2807 7.19159 24.1031 8.63635 24.5144C9.90599 24.8799 11.2632 24.8799 12.5766 24.6058C14.1965 24.2859 15.6851 23.4177 16.8671 22.2297C17.3049 21.7271 18.0054 21.7271 18.4432 22.184Z" fill="#FCECDD"/>
</svg>
